Coordinates
version=1
nRows=14
nColumns=36
inDegrees=yes

Units are S.I. units (second, meters, Newtons, ...)
If the header above contains a line with 'inDegrees', this indicates whether rotational values are in degrees (yes) or radians (no).

endheader
time	pelvis_tilt	pelvis_list	pelvis_rotation	pelvis_tx	pelvis_ty	pelvis_tz	hip_flexion_r	hip_adduction_r	hip_rotation_r	knee_angle_r	knee_angle_r_beta	ankle_angle_r	subtalar_angle_r	mtp_angle_r	hip_flexion_l	hip_adduction_l	hip_rotation_l	knee_angle_l	knee_angle_l_beta	ankle_angle_l	subtalar_angle_l	mtp_angle_l	lumbar_extension	lumbar_bending	lumbar_rotation	arm_flex_r	arm_add_r	arm_rot_r	elbow_flex_r	pro_sup_r	arm_flex_l	arm_add_l	arm_rot_l	elbow_flex_l	pro_sup_l
      0.00000000	     -7.30833981	     -1.45694966	     -2.25107297	     -0.30319280	      1.22164025	     -0.11001920	      8.01172446	      1.41458297	      6.18011919	      5.65902509	      0.09876862	      4.26167050	    -17.92981778	     -6.65490552	      5.09729442	     -3.07472852	      0.40967782	      2.68780239	      0.04691100	     10.25794887	     -2.27301011	     -6.65490552	     -4.27410071	      1.53804573	     -0.24283525	     -0.28253191	     -7.83908041	     11.46247327	     32.38136811	     81.11723361	     -0.39319222	     -8.86667179	     20.62708680	     25.25389590	     67.08763633
      0.01666670	     -8.48118999	     -1.84359363	     -2.31586201	     -0.30269230	      1.22226872	     -0.11021321	      9.14746013	      2.12404731	      6.56110425	      5.99893635	      0.10470119	      6.93247567	    -15.15595143	     -7.08061683	      6.21217014	     -3.06251775	      0.62761110	      1.96014832	      0.03421104	     10.29067865	     -1.34153369	     -7.08061683	     -2.94093778	      2.19841311	      0.17949615	     -1.32950781	     -6.77571298	      5.20544966	     33.31089875	     86.49193900	     -0.72924109	     -7.27837466	     14.79185731	     24.50338806	     72.81972948
      0.03333330	     -8.42849266	     -1.35239782	     -2.55734138	     -0.30346208	      1.22401107	     -0.10942004	      8.62555483	      1.52349125	      6.30882219	      4.98141649	      0.08694212	      7.50076550	    -13.79552611	     -7.19572365	      5.76137633	     -2.58744589	     -0.36533316	      1.36072775	      0.02374918	     10.46774097	     -0.27286665	     -7.19572365	     -3.20030781	      1.45770707	      0.59973468	     -1.82723042	     -5.84619847	      2.17758197	     34.53632670	     83.96110237	     -0.66224899	     -7.06526918	     12.35533917	     24.65622919	     71.86220319
      0.05000000	     -7.74633019	     -1.26419239	     -3.00917127	     -0.30432423	      1.22260095	     -0.10900336	      7.70027076	      1.35371022	      6.43608033	      4.45392793	      0.07773571	      7.95601054	    -12.64597372	     -7.35755534	      4.63599065	     -2.42607634	     -1.37299277	      0.81843677	      0.01428442	     10.60541246	      0.88217633	     -7.35755534	     -4.10290180	      1.24246150	      0.98939277	     -1.81100130	     -5.42839828	     -0.26029568	     35.22317808	     89.20521920	     -0.82492531	     -7.08747254	     10.04726424	     25.28831628	     76.48041339
      0.06666670	     -7.17262719	     -1.27694532	     -3.12540328	     -0.29883638	      1.22354080	     -0.11159861	      6.59646210	      1.22952190	      6.44480753	      3.82238337	      0.06671318	      7.92645407	    -12.12124860	     -7.36078752	      3.69930688	     -2.26948349	     -1.82716537	      0.60152696	      0.01049863	     10.84510363	      1.54071458	     -7.36078752	     -4.42401704	      1.28318711	      1.22868536	     -2.07871332	     -5.60976014	     -0.25805940	     35.55529810	     89.17088876	     -0.95580651	     -6.91991244	      9.87227550	     25.13114520	     76.51026596
      0.08333330	     -6.71956351	     -1.30116779	     -3.46562964	     -0.29943436	      1.22427197	     -0.11132483	      5.84511651	      1.12710877	      6.82869377	      3.38384472	      0.05905923	      7.71455862	    -12.44002458	     -7.44857494	      3.02879483	     -2.18081505	     -2.41060058	      0.51416074	      0.00897380	     11.14283327	      2.21325258	     -7.44857494	     -4.71566820	      1.31411439	      1.67032871	     -2.32322972	     -6.26881538	      2.22285131	     36.28048932	     81.78940468	     -0.90892208	     -6.77297648	     10.49609481	     24.97249021	     71.84992634
      0.10000000	     -6.22593713	     -1.38544457	     -3.69875017	     -0.30006922	      1.22503353	     -0.11110786	      5.07549598	      1.11373689	      6.66514627	      2.93369852	      0.05120270	      7.63123116	    -12.02521907	     -7.45389909	      2.39782496	     -2.18814214	     -2.60959745	      0.47537049	      0.00829678	     11.27083585	      2.42538753	     -7.45389909	     -5.07850541	      1.36969337	      1.83983122	     -2.18748316	     -6.42152850	      2.38411725	     36.19199713	     81.67520459	     -0.90014078	     -6.58627610	     10.43401548	     24.92143145	     71.79742881
      0.11666670	     -5.96967042	     -1.39205564	     -3.86148301	     -0.30044601	      1.22534138	     -0.11097603	      4.60558346	      1.06692187	      6.67565460	      2.61320387	      0.04560901	      7.31370867	    -12.06734738	     -7.45822794	      2.06272530	     -2.14862050	     -2.71854138	      0.45689305	      0.00797429	     11.21563771	      2.32500213	     -7.45822794	     -5.07135714	      1.44560845	      2.13410999	     -2.14010649	     -6.59627835	      2.91330441	     36.04980449	     81.57456140	     -0.65489749	     -6.43651409	     10.30002338	     24.59303706	     71.60859577
      0.13333330	     -5.70164733	     -1.41609889	     -4.04892693	     -0.30076581	      1.22578975	     -0.11081547	      4.29493186	      1.06819524	      6.66548388	      2.49418049	      0.04353166	      7.07400907	    -12.16486969	     -7.46309485	      1.72430461	     -2.14910043	     -2.85056396	      0.45560123	      0.00795174	     11.20323248	      2.35670233	     -7.46309485	     -5.15476026	      1.46902174	      2.40166685	     -2.14091704	     -6.82055306	      3.44531393	     36.13341582	     81.51190122	     -0.64559491	     -6.31558462	     10.11175785	     24.78294252	     71.41745034
      0.15000000	     -5.66211830	     -1.40807194	     -4.26311855	     -0.30089357	      1.22574734	     -0.11063576	      4.31915760	      1.08117669	      6.80875623	      2.49087014	      0.04347389	      6.77996880	    -12.62508488	     -7.47243181	      1.63792449	     -2.14844901	     -2.89093698	      0.45618636	      0.00796195	     11.06165432	      2.17291457	     -7.47243181	     -4.88212308	      1.44378051	      2.54052988	     -2.05166317	     -7.01672921	      4.44789237	     35.87458486	     81.14453571	     -0.62574191	     -6.21768349	      9.86547411	     24.63656370	     70.84261359
      0.16666670	     -5.47878627	     -1.40614273	     -4.44589597	     -0.30115812	      1.22606529	     -0.11047895	      4.19398156	      1.08032650	      6.78099956	      2.49723919	      0.04358505	      6.78337181	    -12.59551343	     -7.48374089	      1.41275555	     -2.14021015	     -2.99869102	      0.45841479	      0.00800085	     10.99700240	      2.06488472	     -7.48374089	     -4.90704848	      1.44724310	      2.62848606	     -1.93592576	     -6.93497750	      3.43921741	     35.74556158	     87.20077443	     -0.74664548	     -6.10154345	      8.67821899	     24.90798738	     73.37056685
      0.18333330	     -5.38733198	     -1.37842082	     -4.60403260	     -0.30115119	      1.22624741	     -0.11038018	      4.19241885	      1.06804560	      6.84992566	      2.55735789	      0.04463432	      6.70476790	    -12.82892625	     -7.48797383	      1.28701256	     -2.12214928	     -3.07580628	      0.45845896	      0.00800162	     10.89826742	      1.97799485	     -7.48797383	     -4.80103187	      1.42676000	      2.74637938	     -1.82197093	     -7.05876749	      4.08159261	     35.55060907	     85.13244642	     -0.68844872	     -6.05416228	      8.69297212	     24.80860902	     72.34465876
      0.20000000	     -5.29066480	     -1.36683831	     -4.69271897	     -0.29524228	      1.22920503	     -0.11300446	      4.12629683	      1.00312915	      6.78240077	      2.56698605	      0.04480236	      6.64917388	    -12.82744537	     -7.48799494	      1.01679988	     -2.12151759	     -3.04879060	      0.47389913	      0.00827110	     10.83256688	      2.01078096	     -7.48799494	     -4.62799597	      1.48804081	      2.79586918	     -1.87394423	     -7.11394658	      4.07303712	     35.49872460	     85.14746659	     -0.84636753	     -5.93289401	      8.71244224	     24.78366355	     72.35018265
      0.21666670	     -4.95551785	     -1.50909420	     -4.75029531	     -0.29531732	      1.22924540	     -0.11294557	      3.62945867	      1.06367882	      6.60913248	      2.30609119	      0.04024888	      6.68675218	    -12.38910043	     -7.48931072	      0.44579640	     -2.26588799	     -3.34644942	      0.43887321	      0.00765978	     11.05080562	      2.61676485	     -7.48931072	     -4.75231723	      1.69180861	      2.94770502	     -1.75568782	     -7.19079781	      4.12328504	     34.80636221	     84.37414685	     -0.79995250	     -5.69997151	      8.54180154	     24.46470971	     71.84740996
